PathFileType	4	(X/Y/Z)	output.trc
DataRate	CameraRate	NumFrames	NumMarkers	Units	OrigDataRate	OrigDataStartFrame	OrigNumFrames
100	100	12	23	m	100	1	6185
Frame#	Time	C7			T8			EL			EM			US			RS			AA			Fore_Clus_1			Fore_Clus_2			Fore_Clus_3			Fore_Clus_4			Hum_Clus_1			Hum_Clus_2			Hum_Clus_3			Hum_Clus_4			Thor_Clus_1			Thor_Clus_2			Thor_Clus_3			Thor_Clus_4			IJ			PX			GH			Thor_Clus_5		
		X1	Y1	Z1	X2	Y2	Z2	X3	Y3	Z3	X4	Y4	Z4	X5	Y5	Z5	X6	Y6	Z6	X7	Y7	Z7	X8	Y8	Z8	X9	Y9	Z9	X10	Y10	Z10	X11	Y11	Z11	X12	Y12	Z12	X13	Y13	Z13	X14	Y14	Z14	X15	Y15	Z15	X16	Y16	Z16	X17	Y17	Z17	X18	Y18	Z18	X19	Y19	Z19	X20	Y20	Z20	X21	Y21	Z21	X22	Y22	Z22	X23	Y23	Z23
0	0.000000	-0.066756	1.476108	-0.106245	-0.099698	1.244891	-0.150840	-0.214308	1.063010	0.098745	-0.200979	1.053230	0.035520	-0.174152	0.819836	0.148489	-0.121586	0.819199	0.135653	-0.194370	1.379956	0.049550	-0.183450	0.894570	0.165690	-0.171457	0.842409	0.176986	-0.146475	0.850075	0.176371	-0.139724	0.904220	0.161766	-0.191772	1.164089	0.121702	-0.242506	1.173208	0.090335	-0.244658	1.236773	0.091838	-0.191092	1.238106	0.116009	0.068618	1.367645	0.000645	0.036725	1.317094	0.060365	0.032738	1.364575	0.027688	0.087480	1.321366	0.020738	0.003581	1.380357	-0.028173	0.034205	1.165457	0.010744	-0.168650	1.356720	0.016783	0.028035	1.337536	0.051080
1	0.010000	-0.066638	1.476110	-0.106323	-0.099622	1.244892	-0.150880	-0.214261	1.063067	0.098727	-0.200924	1.053279	0.035504	-0.174118	0.819895	0.148498	-0.121552	0.819254	0.135661	-0.194306	1.380016	0.049464	-0.183434	0.894628	0.165697	-0.171444	0.842475	0.177024	-0.146438	0.850147	0.176404	-0.139701	0.904258	0.161781	-0.191732	1.164135	0.121668	-0.242453	1.173255	0.090290	-0.244609	1.236831	0.091781	-0.191053	1.238154	0.115961	0.068667	1.367639	0.000610	0.036780	1.317106	0.060346	0.032802	1.364573	0.027653	0.087526	1.321365	0.020734	0.003661	1.380358	-0.028218	0.034230	1.165459	0.010747	-0.168580	1.356766	0.016736	0.028071	1.337552	0.051051
2	0.020000	-0.066525	1.476110	-0.106399	-0.099548	1.244890	-0.150920	-0.214215	1.063123	0.098709	-0.200868	1.053328	0.035489	-0.174086	0.819952	0.148510	-0.121521	0.819310	0.135672	-0.194246	1.380072	0.049379	-0.183385	0.894696	0.165714	-0.171409	0.842553	0.177054	-0.146410	0.850216	0.176435	-0.139655	0.904327	0.161796	-0.191686	1.164208	0.121640	-0.242388	1.173338	0.090236	-0.244558	1.236905	0.091710	-0.191021	1.238221	0.115927	0.068725	1.367626	0.000575	0.036826	1.317120	0.060311	0.032884	1.364587	0.027600	0.087581	1.321349	0.020703	0.003737	1.380359	-0.028262	0.034254	1.165460	0.010749	-0.168515	1.356811	0.016690	0.028096	1.337520	0.051034
3	0.030000	-0.066411	1.476112	-0.106475	-0.099471	1.244892	-0.150967	-0.214173	1.063178	0.098693	-0.200816	1.053373	0.035477	-0.174050	0.820012	0.148525	-0.121485	0.819367	0.135684	-0.194189	1.380125	0.049288	-0.183375	0.894754	0.165740	-0.171401	0.842609	0.177111	-0.146395	0.850290	0.176489	-0.139630	0.904383	0.161831	-0.191657	1.164264	0.121608	-0.242328	1.173383	0.090205	-0.244513	1.236956	0.091667	-0.190988	1.238262	0.115895	0.068803	1.367622	0.000563	0.036871	1.317133	0.060279	0.032942	1.364592	0.027572	0.087628	1.321343	0.020689	0.003813	1.380359	-0.028305	0.034276	1.165461	0.010749	-0.168451	1.356853	0.016644	0.028201	1.337581	0.050989
4	0.040000	-0.066303	1.476113	-0.106547	-0.099395	1.244893	-0.151012	-0.214133	1.063230	0.098679	-0.200764	1.053417	0.035467	-0.174016	0.820071	0.148543	-0.121452	0.819422	0.135699	-0.194135	1.380174	0.049200	-0.183338	0.894818	0.165765	-0.171321	0.842682	0.177083	-0.146340	0.850355	0.176584	-0.139594	0.904454	0.161858	-0.191606	1.164337	0.121573	-0.242284	1.173445	0.090181	-0.244456	1.237013	0.091620	-0.190940	1.238333	0.115850	0.068864	1.367620	0.000565	0.036910	1.317145	0.060259	0.032998	1.364622	0.027534	0.087666	1.321335	0.020670	0.003885	1.380359	-0.028346	0.034299	1.165461	0.010747	-0.168390	1.356894	0.016599	0.028240	1.337598	0.050963
5	0.050000	-0.066202	1.476114	-0.106616	-0.099322	1.244893	-0.151055	-0.214094	1.063280	0.098667	-0.200713	1.053458	0.035459	-0.173986	0.820128	0.148566	-0.121423	0.819474	0.135717	-0.194085	1.380218	0.049117	-0.183302	0.894862	0.165802	-0.171266	0.842741	0.177086	-0.146338	0.850403	0.176618	-0.139569	0.904488	0.161885	-0.191571	1.164378	0.121548	-0.242250	1.173481	0.090156	-0.244423	1.237045	0.091585	-0.190902	1.238368	0.115814	0.068899	1.367619	0.000530	0.036938	1.317148	0.060240	0.033113	1.364545	0.027491	0.087709	1.321331	0.020662	0.003953	1.380359	-0.028386	0.034322	1.165462	0.010744	-0.168333	1.356932	0.016555	0.028228	1.337549	0.050935
6	0.060000	-0.066104	1.476115	-0.106682	-0.099251	1.244893	-0.151099	-0.214059	1.063328	0.098658	-0.200665	1.053496	0.035454	-0.173955	0.820186	0.148592	-0.121394	0.819524	0.135740	-0.194036	1.380259	0.049035	-0.183257	0.894918	0.165840	-0.171226	0.842799	0.177115	-0.146297	0.850440	0.176655	-0.139537	0.904576	0.161927	-0.191522	1.164430	0.121526	-0.242210	1.173548	0.090132	-0.244377	1.237105	0.091555	-0.190866	1.238426	0.115792	0.068943	1.367626	0.000509	0.036974	1.317157	0.060216	0.033185	1.364555	0.027451	0.087751	1.321322	0.020646	0.004018	1.380359	-0.028424	0.034345	1.165462	0.010741	-0.168277	1.356967	0.016514	0.028310	1.337610	0.050903
7	0.070000	-0.066019	1.476114	-0.106742	-0.099189	1.244890	-0.151134	-0.214024	1.063373	0.098650	-0.200618	1.053533	0.035450	-0.173933	0.820239	0.148625	-0.121373	0.819567	0.135767	-0.193990	1.380295	0.048966	-0.183234	0.894949	0.165873	-0.171192	0.842835	0.177172	-0.146289	0.850497	0.176696	-0.139502	0.904605	0.161957	-0.191500	1.164463	0.121526	-0.242181	1.173571	0.090120	-0.244341	1.237132	0.091523	-0.190840	1.238454	0.115769	0.068967	1.367606	0.000478	0.037002	1.317164	0.060182	0.033204	1.364532	0.027416	0.087785	1.321319	0.020618	0.004078	1.380359	-0.028460	0.034370	1.165463	0.010739	-0.168226	1.357001	0.016474	0.028290	1.337553	0.050882
8	0.080000	-0.065940	1.476112	-0.106799	-0.099130	1.244887	-0.151165	-0.213992	1.063415	0.098647	-0.200573	1.053565	0.035451	-0.173911	0.820291	0.148663	-0.121352	0.819605	0.135800	-0.193946	1.380330	0.048902	-0.183189	0.895007	0.165912	-0.171147	0.842896	0.177220	-0.146253	0.850528	0.176734	-0.139443	0.904661	0.161985	-0.191477	1.164512	0.121515	-0.242146	1.173616	0.090098	-0.244302	1.237173	0.091494	-0.190816	1.238503	0.115743	0.069022	1.367608	0.000477	0.037034	1.317173	0.060175	0.033251	1.364557	0.027372	0.087817	1.321313	0.020610	0.004134	1.380360	-0.028493	0.034394	1.165465	0.010738	-0.168175	1.357031	0.016438	0.028331	1.337568	0.050846
9	0.090000	-0.065872	1.476108	-0.106851	-0.099081	1.244880	-0.151188	-0.213960	1.063454	0.098648	-0.200530	1.053596	0.035455	-0.173895	0.820338	0.148708	-0.121338	0.819637	0.135841	-0.193904	1.380360	0.048851	-0.183141	0.895035	0.165951	-0.171128	0.842926	0.177281	-0.146201	0.850561	0.176784	-0.139398	0.904697	0.162028	-0.191460	1.164538	0.121515	-0.242127	1.173641	0.090091	-0.244283	1.237201	0.091472	-0.190787	1.238534	0.115732	0.069067	1.367606	0.000448	0.037070	1.317182	0.060149	0.033278	1.364540	0.027348	0.087855	1.321310	0.020590	0.004184	1.380360	-0.028525	0.034420	1.165468	0.010741	-0.168129	1.357058	0.016406	0.028363	1.337571	0.050830
10	0.100000	-0.065816	1.476102	-0.106897	-0.099041	1.244870	-0.151200	-0.213928	1.063491	0.098653	-0.200488	1.053624	0.035464	-0.173884	0.820381	0.148761	-0.121328	0.819662	0.135889	-0.193862	1.380388	0.048813	-0.183091	0.895092	0.165993	-0.171079	0.842972	0.177318	-0.146186	0.850611	0.176829	-0.139337	0.904779	0.162083	-0.191440	1.164582	0.121516	-0.242087	1.173685	0.090078	-0.244251	1.237234	0.091450	-0.190766	1.238577	0.115710	0.069085	1.367584	0.000433	0.037089	1.317184	0.060127	0.033329	1.364558	0.027332	0.087895	1.321298	0.020574	0.004229	1.380360	-0.028553	0.034445	1.165472	0.010746	-0.168085	1.357084	0.016377	0.028397	1.337571	0.050803
11	0.110000	-0.065766	1.476096	-0.106940	-0.099008	1.244859	-0.151207	-0.213899	1.063524	0.098664	-0.200450	1.053649	0.035478	-0.173872	0.820422	0.148822	-0.121317	0.819681	0.135945	-0.193822	1.380416	0.048783	-0.183059	0.895127	0.166044	-0.171043	0.843001	0.177374	-0.146102	0.850635	0.176861	-0.139277	0.904814	0.162126	-0.191422	1.164619	0.121524	-0.242066	1.173700	0.090066	-0.244223	1.237261	0.091431	-0.190747	1.238600	0.115704	0.069136	1.367598	0.000420	0.037136	1.317184	0.060115	0.033346	1.364547	0.027317	0.087937	1.321303	0.020556	0.004270	1.380361	-0.028580	0.034470	1.165477	0.010754	-0.168041	1.357106	0.016354	0.028436	1.337577	0.050795
